<svg id="Layer_1" data-name="Layer 1" xmlns="http://www.w3.org/2000/svg" xmlns:xlink="http://www.w3.org/1999/xlink" viewBox="0 0 352.15 567.85"><defs><style>.cls-1{fill:none;stroke:#33151a;stroke-miterlimit:10;stroke-width:8px;}.cls-2{fill:#c81f42;}.cls-3{fill:#ef4861;}.cls-4{fill:#46111b;}.cls-5{fill:url(#linear-gradient);}.cls-6{fill:url(#linear-gradient-2);}</style><linearGradient id="linear-gradient" x1="83.42" y1="164.94" x2="237.88" y2="164.94" gradientUnits="userSpaceOnUse"><stop offset="0" stop-color="#f8f1e7"/><stop offset="1" stop-color="#efbf7e"/></linearGradient><linearGradient id="linear-gradient-2" x1="83.42" y1="184.96" x2="237.88" y2="184.96" xlink:href="#linear-gradient"/></defs><title>banner</title><path class="cls-1" d="M284.68,231,236.21,440.15,260.45,467s-9.15,72-84.38,72S91.7,467,91.7,467l24.24-26.81L67.47,231"/><rect class="cls-2" x="45.94" y="81.23" width="260.43" height="209.71"/><rect class="cls-3" x="45.94" y="30.52" width="260.43" height="50.71"/><rect class="cls-2" x="29.86" y="282.38" width="292.6" height="15.83"/><rect class="cls-4" x="95.3" y="282.38" width="161.71" height="15.83"/><rect class="cls-3" x="41.34" y="282.38" width="269.63" height="15.83"/><rect class="cls-4" x="95.3" y="282.38" width="161.71" height="15.83"/><path class="cls-5" d="M213.46,109.93h2.46q14.47,0,20.07,12.1l.38,4.14v1.69a20.2,20.2,0,0,1-7.89,16.62l-2.15.46c-.35,0-.76-.41-1.22-1.23a4.91,4.91,0,0,0,.84-2.52V140a4.73,4.73,0,0,0-4.59-2.53h-2.92q-8.73,0-49.56,17.93-8.5,0-19.62,48.34l1.23,8.35q-1.61,7.89-15.4,7.89H133q-10.8,0-13.71-7.5v-2.92q0-1.29,5.36-12.94a203.77,203.77,0,0,1,11.72-38.31h-.46q-11.42-3.28-17.08-12.1a25.47,25.47,0,0,1-2.91-10.81v-1.68q0-11.73,14.17-19.15H131q5.82,11.25,17.09,11.26a21.35,21.35,0,0,0,5,.38h1.68q13.56,0,48.34-14.56A37,37,0,0,1,213.46,109.93Z"/><path class="cls-6" d="M187.78,153.81h.48a13.43,13.43,0,0,1,3.65,1.82,1.63,1.63,0,0,0,.7.26,8.9,8.9,0,0,1,3.69-.69h2.09q15.8,0,18.14,3.43a11.54,11.54,0,0,1,2.78,6.92v1.61q0,5.43-9.44,13.57v.21h.48a7.52,7.52,0,0,1,3.87-1.61h.7q3.21,0,7.61,8.74a18.06,18.06,0,0,1,.69,4.83v.91q0,9.75-15.87,13.79c-.06.12-2.83,1-8.31,2.78q-1.26,5.26-4.56,5.26c0,.32-.93.48-2.78.48h-1.61q-2.35,0-2.74-3.43v-.92q0-7.7,10.35-12.43,0-.34,8.74-4.83v-.22c0-.46-1-.77-3-.91s-4.7.84-8.27,2.52h-.69q-2.74,0-5.09-7.83v-1.82q0-5.49,11.26-14.53l.26-.91a2.06,2.06,0,0,0-.69-.22q-1.35,0-8.52,3.44h-.44q-4.6,0-6.91-12.4v-1.39C184.35,156.62,185.49,154.47,187.78,153.81Zm4.65,60.75.35.17H193q3.3-.73,3.3-2.78Q192.44,212.91,192.43,214.56Z"/></svg>