<svg id="Layer_1" data-name="Layer 1" xmlns="http://www.w3.org/2000/svg" xmlns:xlink="http://www.w3.org/1999/xlink" viewBox="0 0 1078.98 225.7"><defs><style>.cls-1{fill:url(#linear-gradient);}.cls-2{fill:url(#linear-gradient-2);}.cls-3{fill:url(#linear-gradient-3);}.cls-4{fill:url(#linear-gradient-4);}.cls-5{fill:url(#linear-gradient-5);}.cls-6{fill:url(#linear-gradient-6);}.cls-7{fill:url(#linear-gradient-7);}.cls-8{fill:url(#linear-gradient-8);}.cls-9{fill:url(#linear-gradient-9);}.cls-10{fill:url(#linear-gradient-10);}</style><linearGradient id="linear-gradient" x1="44.77" y1="107.29" x2="1123.24" y2="125.67" gradientUnits="userSpaceOnUse"><stop offset="0" stop-color="#f8f1e7"/><stop offset="1" stop-color="#efbf7e"/></linearGradient><linearGradient id="linear-gradient-2" x1="44.95" y1="96.96" x2="1123.41" y2="115.34" xlink:href="#linear-gradient"/><linearGradient id="linear-gradient-3" x1="44.68" y1="112.56" x2="1123.15" y2="130.95" xlink:href="#linear-gradient"/><linearGradient id="linear-gradient-4" x1="44.45" y1="125.86" x2="1122.92" y2="144.25" xlink:href="#linear-gradient"/><linearGradient id="linear-gradient-5" x1="45" y1="93.61" x2="1123.47" y2="111.99" xlink:href="#linear-gradient"/><linearGradient id="linear-gradient-6" x1="44.72" y1="107.66" x2="1123.19" y2="126.05" xlink:href="#linear-gradient"/><linearGradient id="linear-gradient-7" x1="44.94" y1="97.19" x2="1123.41" y2="115.57" xlink:href="#linear-gradient"/><linearGradient id="linear-gradient-8" x1="45.13" y1="85.95" x2="1123.6" y2="104.33" xlink:href="#linear-gradient"/><linearGradient id="linear-gradient-9" x1="44.85" y1="102.73" x2="1123.32" y2="121.12" xlink:href="#linear-gradient"/><linearGradient id="linear-gradient-10" x1="45.09" y1="88.3" x2="1123.56" y2="106.68" xlink:href="#linear-gradient"/></defs><title>title</title><path class="cls-1" d="M135.79,80.23a3.76,3.76,0,0,1-2-.53,18.24,18.24,0,0,1-2-1.43l-.17-.09a42.72,42.72,0,0,0-9.51-7,39.46,39.46,0,0,0-6.52-2.78,22.35,22.35,0,0,0-7.09-1.15,29.3,29.3,0,0,0-8.12,1,18.69,18.69,0,0,0-5.9,2.79,12.08,12.08,0,0,0-3.61,4.14,10.93,10.93,0,0,0-1.23,5.09,7.82,7.82,0,0,0,1.85,5.16,16.9,16.9,0,0,0,5,3.94,47.91,47.91,0,0,0,7.25,3.15q4.11,1.44,8.61,2.83,5.17,1.56,10.25,3.37a94.27,94.27,0,0,1,9.72,4,69.12,69.12,0,0,1,8.65,5,32.52,32.52,0,0,1,6.93,6.31,28.84,28.84,0,0,1,4.59,8,27.5,27.5,0,0,1,1.69,9.89,35.66,35.66,0,0,1-3.61,16.15,37,37,0,0,1-10,12.34,45.6,45.6,0,0,1-14.92,7.87,60,60,0,0,1-18.41,2.75,53.86,53.86,0,0,1-12.54-1.48,60.3,60.3,0,0,1-12-4.18,63.42,63.42,0,0,1-10.86-6.52,54,54,0,0,1-9.14-8.57v.09l-.17-.33a6,6,0,0,1-1.8-3.77,3.29,3.29,0,0,1,.49-1.73,10.07,10.07,0,0,1,1.48-1.8l2.7-2.71c.82-.71,1.69-1.5,2.62-2.37a34.67,34.67,0,0,1,2.79-2.38c.93-.71,1.79-1.31,2.59-1.81a4,4,0,0,1,1.92-.73,3.51,3.51,0,0,1,2.14.73,17,17,0,0,1,1.64,1.4l.32.33h-.08a54.26,54.26,0,0,0,6.44,5.16,65.57,65.57,0,0,0,7.34,4.39,44.3,44.3,0,0,0,7.5,3,24.63,24.63,0,0,0,7,1.11,29.91,29.91,0,0,0,8.45-1.15,21.55,21.55,0,0,0,6.8-3.24,15.35,15.35,0,0,0,4.51-5,13.2,13.2,0,0,0,1.64-6.56,9.4,9.4,0,0,0-2.13-6.19,19.3,19.3,0,0,0-5.58-4.51,43,43,0,0,0-7.74-3.32c-2.87-.93-5.76-1.81-8.65-2.63a128.62,128.62,0,0,1-17.51-6.56,53.11,53.11,0,0,1-12.51-7.91A29.36,29.36,0,0,1,67.44,92a29,29,0,0,1-2.5-12.26A31.19,31.19,0,0,1,68,65.84,30.84,30.84,0,0,1,76.75,55.1a42.12,42.12,0,0,1,13.61-7,59.05,59.05,0,0,1,17.79-2.5A52,52,0,0,1,123.32,48a59.3,59.3,0,0,1,14.27,6.43q2,1.23,4,2.79t3.77,3.16a21.36,21.36,0,0,1,2.83,3.12,4.69,4.69,0,0,1,1.11,2.58,4.78,4.78,0,0,1-.49,2,7.53,7.53,0,0,1-1.24,1.84l-2.46,2.63v-.09l-2.54,2.71a31.8,31.8,0,0,1-2.62,2.5c-.88.74-1.67,1.35-2.38,1.85A3.38,3.38,0,0,1,135.79,80.23Z"/><path class="cls-2" d="M173,34.09c0-3.3,1.62-4.94,4.84-4.94h13.78a5.38,5.38,0,0,1,3.69,1.23,4.7,4.7,0,0,1,1.39,3.71V46.35a5.78,5.78,0,0,1-1.31,3.58,4.43,4.43,0,0,1-3.69,1.69H177.93q-4.92,0-4.92-5.27Zm0,36.3a5.26,5.26,0,0,1,1.23-3.56,4.48,4.48,0,0,1,3.61-1.44h13.61a5,5,0,0,1,1.85.37A5.12,5.12,0,0,1,195,66.83a6.26,6.26,0,0,1,1.23,1.6,4,4,0,0,1,.49,2v94.22q0,4.92-5.17,4.92H177.93q-4.92,0-4.92-4.92Z"/><path class="cls-3" d="M225.62,66.42a11.67,11.67,0,0,1,5.2-1h8.28A4.08,4.08,0,0,1,242.63,67a8.85,8.85,0,0,1,1.56,3.45l.9,7.91a41.75,41.75,0,0,1,4.35-5.39,26,26,0,0,1,5.86-4.57,32,32,0,0,1,7.95-3.17A42.46,42.46,0,0,1,273.87,64a45.19,45.19,0,0,1,10.42,1.11,31.25,31.25,0,0,1,8.44,3.29,30.64,30.64,0,0,1,6.81,5.35A40.7,40.7,0,0,1,305,81,26.27,26.27,0,0,1,310.36,74a33,33,0,0,1,7.75-5.47,41.72,41.72,0,0,1,9.64-3.5,47.06,47.06,0,0,1,10.9-1.24,38.92,38.92,0,0,1,17,3.53A34.72,34.72,0,0,1,367.93,77a42.7,42.7,0,0,1,7.42,14.35,60.14,60.14,0,0,1,2.5,17.55v54.7a6.42,6.42,0,0,1-1.39,4.46,5.17,5.17,0,0,1-4,1.52H360c-2.18,0-3.65-.41-4.38-1.23s-1.11-2.26-1.11-4.34V108.91a29.26,29.26,0,0,0-1.23-8.44,20.81,20.81,0,0,0-3.81-7.25A19.41,19.41,0,0,0,343,88.15a20.73,20.73,0,0,0-9.31-1.93,21.51,21.51,0,0,0-8.36,1.6,18.71,18.71,0,0,0-6.65,4.59,21.69,21.69,0,0,0-4.38,7.2,26.23,26.23,0,0,0-1.6,9.38v54.64c0,3.94-1.78,5.9-5.33,5.9H294.78c-2.18,0-3.63-.41-4.34-1.23s-1.07-2.26-1.07-4.34V109a29.5,29.5,0,0,0-1.19-8.31,21.35,21.35,0,0,0-3.69-7.25,18.53,18.53,0,0,0-6.44-5.16,20.69,20.69,0,0,0-9.34-2,21.05,21.05,0,0,0-7.55,1.44,22.22,22.22,0,0,0-6.84,4.13,21.69,21.69,0,0,0-5,6.64,20.55,20.55,0,0,0-2.05,8.93V164.7a4.63,4.63,0,0,1-1.39,3.48,4.88,4.88,0,0,1-3.53,1.35H228.77a5.39,5.39,0,0,1-4-1.27,4.93,4.93,0,0,1-1.28-3.65V70.23A3.84,3.84,0,0,1,225.62,66.42Z"/><path class="cls-4" d="M402.28,65.88a7.18,7.18,0,0,1,2.18-.61,20,20,0,0,1,2.17-.12h8.28a4.06,4.06,0,0,1,3.49,1.39,8.65,8.65,0,0,1,1.43,3.53l1.72,10a78.06,78.06,0,0,1,6.11-6.23,41.8,41.8,0,0,1,7.18-5.25,37.44,37.44,0,0,1,8.69-3.65,39,39,0,0,1,10.66-1.35,51.91,51.91,0,0,1,14.23,1.92A52.78,52.78,0,0,1,481,70.93a51.46,51.46,0,0,1,10.62,8.36,53.12,53.12,0,0,1,8.16,10.87A54.36,54.36,0,0,1,505.07,103a56.58,56.58,0,0,1,0,28.7,54.14,54.14,0,0,1-13.41,23.78,50.65,50.65,0,0,1-10.62,8.4,52.73,52.73,0,0,1-12.66,5.42,52,52,0,0,1-14.19,1.92,39.63,39.63,0,0,1-9.8-1.14,38.09,38.09,0,0,1-8.28-3.16,41.49,41.49,0,0,1-7.05-4.68,65.83,65.83,0,0,1-6.11-5.69v39.93a4.91,4.91,0,0,1-1.23,3.36,4.66,4.66,0,0,1-3.69,1.4H404.42A5.62,5.62,0,0,1,401,200a4.11,4.11,0,0,1-1.68-3.48V70a3.85,3.85,0,0,1,2.95-4.1Zm81.27,51.5a33.43,33.43,0,0,0-8.74-22.59,30.25,30.25,0,0,0-9.63-7,28.38,28.38,0,0,0-12.06-2.58A29.43,29.43,0,0,0,441,87.78a33.15,33.15,0,0,0-10,6.84,33.65,33.65,0,0,0-6.89,10,30.16,30.16,0,0,0-2.66,12.14v.57a31.55,31.55,0,0,0,2.5,12.46,33.44,33.44,0,0,0,6.81,10.34,32.93,32.93,0,0,0,10.08,7,29.52,29.52,0,0,0,12.34,2.62,28,28,0,0,0,12.06-2.62,30.63,30.63,0,0,0,9.63-7,33.88,33.88,0,0,0,8.74-22.8Z"/><path class="cls-5" d="M525.78,39.4a5.4,5.4,0,0,1,1.14-3.53,4.31,4.31,0,0,1,3.53-1.39H544.8a4.34,4.34,0,0,1,3.07,1.39,4.71,4.71,0,0,1,1.44,3.53V164.61A4.75,4.75,0,0,1,548,168.3a5.24,5.24,0,0,1-3.65,1.23h-13.7a4.82,4.82,0,0,1-3.73-1.23,5.35,5.35,0,0,1-1.1-3.69Z"/><path class="cls-6" d="M657.47,158.05a58.63,58.63,0,0,1-15.79,9.68,49,49,0,0,1-18.82,3.52,53.47,53.47,0,0,1-21-4.18,55,55,0,0,1-29.23-28.58,51,51,0,0,1-4.39-21.11,54.85,54.85,0,0,1,6.93-26.85,53,53,0,0,1,8.08-10.91,51.07,51.07,0,0,1,23.33-13.94,53.29,53.29,0,0,1,14.47-1.93,50.65,50.65,0,0,1,12.3,1.52,53.89,53.89,0,0,1,21.73,11.07,48.65,48.65,0,0,1,15.58,23.82A63.47,63.47,0,0,1,673,117.79a31.64,31.64,0,0,1-.2,4,5,5,0,0,1-1,2.58,4.65,4.65,0,0,1-2.46,1.43,17.78,17.78,0,0,1-4.6.46H592A27.68,27.68,0,0,0,596,136.69a31.36,31.36,0,0,0,7.09,7.71,29.84,29.84,0,0,0,8.94,4.75,30.53,30.53,0,0,0,9.67,1.6,33.59,33.59,0,0,0,7.1-.73,37.12,37.12,0,0,0,6.35-2,36,36,0,0,0,5.46-2.83A32.34,32.34,0,0,0,645,141.9c0-.06,0-.08.08-.08a12.16,12.16,0,0,1,1.89-1.44,3.38,3.38,0,0,1,3.57,0,6,6,0,0,1,1.84,1.64c1.48,1.8,2.74,3.31,3.78,4.51s1.88,2.21,2.54,3a12.55,12.55,0,0,1,1.43,2.14,4,4,0,0,1,.45,1.8Q660.58,155.76,657.47,158.05Zm-36.41-74a26.19,26.19,0,0,0-9.43,1.76,32,32,0,0,0-8.41,4.8,33.15,33.15,0,0,0-6.64,7.13,29.26,29.26,0,0,0-4.14,8.86H650.5a31.72,31.72,0,0,0-4-9.15,29.45,29.45,0,0,0-6.44-7.13,28.31,28.31,0,0,0-8.61-4.63A32,32,0,0,0,621.06,84.09Z"/><path class="cls-7" d="M798.67,108.77a59.67,59.67,0,0,1-2.22,16.36A60,60,0,0,1,780.58,152a59.68,59.68,0,0,1-12.52,9.39,63.34,63.34,0,0,1-31.35,8.16H697.32a5.29,5.29,0,0,1-2.63-.65q-1.14-.66-1.14-2.79V51.62c0-2.57,1.25-3.86,3.77-3.86h39.39A62.33,62.33,0,0,1,761,52.48a61.43,61.43,0,0,1,19.66,13,60.71,60.71,0,0,1,13.17,19.35A59.87,59.87,0,0,1,798.67,108.77ZM717.24,70.23v76.83H725q6.15,0,12.3-.24a39.28,39.28,0,0,0,15-3.33,38.23,38.23,0,0,0,11.93-8.25,37.21,37.21,0,0,0,7.87-12.1,39,39,0,0,0,2.83-14.9,38.16,38.16,0,0,0-3.07-15.48,36.29,36.29,0,0,0-8.41-12A37.84,37.84,0,0,0,751,73a41.92,41.92,0,0,0-15.17-2.75Z"/><path class="cls-8" d="M819.17,34.09c0-3.3,1.61-4.94,4.84-4.94h13.77a5.38,5.38,0,0,1,3.69,1.23,4.71,4.71,0,0,1,1.4,3.71V46.35a5.73,5.73,0,0,1-1.32,3.58,4.41,4.41,0,0,1-3.69,1.69H824.09q-4.92,0-4.92-5.27Zm0,36.3a5.26,5.26,0,0,1,1.23-3.56A4.48,4.48,0,0,1,824,65.39h13.61a5,5,0,0,1,1.84.37,5.12,5.12,0,0,1,1.68,1.07,5.84,5.84,0,0,1,1.23,1.6,4,4,0,0,1,.5,2v94.22c0,3.28-1.73,4.92-5.17,4.92H824.09q-4.92,0-4.92-4.92Z"/><path class="cls-9" d="M939.54,142.23a7.7,7.7,0,0,1,2.34-1.11,7.56,7.56,0,0,1,1.6-.21,3.13,3.13,0,0,1,2.38,1.48l2,2.71,5.82,8.28a5.55,5.55,0,0,1,.65,1.19,2.92,2.92,0,0,1,.25,1.1,3.43,3.43,0,0,1-.9,2.34,14.62,14.62,0,0,1-2.38,2.09,65.37,65.37,0,0,1-15,8.2,48.85,48.85,0,0,1-17.75,3.12,52.06,52.06,0,0,1-14.14-1.93,54,54,0,0,1-23.66-13.77,55,55,0,0,1-8.49-10.87,53.47,53.47,0,0,1,0-54.45,54.28,54.28,0,0,1,32.15-24.64,52.06,52.06,0,0,1,14.14-1.93,52.6,52.6,0,0,1,17.22,2.79,51.79,51.79,0,0,1,14.43,7.55l-.08-.09a23.48,23.48,0,0,0,2.25,2,3.18,3.18,0,0,1,1.11,2.67c0,.33,0,.71,0,1.15a2.43,2.43,0,0,1-.45,1.23l-6.72,10.25q-1.65,2.46-3.61,2.46a5.2,5.2,0,0,1-3.12-1.4,35.2,35.2,0,0,0-9.76-5.74,30.92,30.92,0,0,0-11.48-2.21,27.75,27.75,0,0,0-12,2.66,32.53,32.53,0,0,0-9.88,7.22A34.21,34.21,0,0,0,889.61,105a33.78,33.78,0,0,0,6.68,35.87,31.79,31.79,0,0,0,9.88,7,28.71,28.71,0,0,0,12.05,2.59A27.87,27.87,0,0,0,930.28,148,46.94,46.94,0,0,0,939.54,142.23Z"/><path class="cls-10" d="M1009.24,169.53a39.83,39.83,0,0,1-12.17-2,29.71,29.71,0,0,1-9.93-5.46,25.7,25.7,0,0,1-6.68-8.78A27.46,27.46,0,0,1,978,141.46V86.06h-9.43A5.2,5.2,0,0,1,965,85a4.49,4.49,0,0,1-1.19-3.51V69.72A4.14,4.14,0,0,1,965,66.37a5.53,5.53,0,0,1,3.57-1H978q0-4.35,0-8.65t0-8.65a3.32,3.32,0,0,1,1-2.58,9,9,0,0,1,3.15-1.68l3.37-1.19c1.31-.47,2.66-.92,4.06-1.36s2.74-.8,4-1.1a15.34,15.34,0,0,1,3.28-.45c1.7,0,2.81.46,3.33,1.39a7.67,7.67,0,0,1,.77,3.69c0,3.44,0,6.88,0,10.29s0,6.85,0,10.29h11.81a4.54,4.54,0,0,1,3.28,1.11,4.59,4.59,0,0,1,1.15,3.47V81.16a5.12,5.12,0,0,1-1.15,3.75,4.43,4.43,0,0,1-3.28,1.15H1001v15.56c0,1.88,0,3.65,0,5.29s0,3.42,0,5.34v15.6a1.24,1.24,0,0,1,0,.33,1.24,1.24,0,0,0,0,.33v10.75q0,5.42,2.13,7.8c1.43,1.59,3.72,2.38,6.89,2.38a3.29,3.29,0,0,1,2.71,1.23,4.62,4.62,0,0,1,1,3V165a4.13,4.13,0,0,1-4.51,4.51Z"/></svg>